<?xml version="1.0" encoding="iso-8859-1"?>
<!-- Generator: Adobe Illustrator 19.0.0, SVG Export Plug-In . SVG Version: 6.00 Build 0)  -->
<svg version="1.1" id="Layer_1" xmlns="http://www.w3.org/2000/svg" xmlns:xlink="http://www.w3.org/1999/xlink" x="0px" y="0px"
	 viewBox="0 0 512.001 512.001" style="enable-background:new 0 0 512.001 512.001;" xml:space="preserve">
<g>
	<g>
		<path d="M167.228,82.855v272.542c-15.859-14.147-36.757-22.76-59.632-22.76c-49.45,0-89.681,40.231-89.681,89.682
			c0,49.451,40.231,89.682,89.681,89.682c49.389,0,89.578-40.13,89.68-89.495h0.002V203.475l266.757-67.621v147.195
			c-15.859-14.147-36.757-22.76-59.631-22.76c-49.451,0-89.682,40.231-89.682,89.681c0,49.451,40.231,89.682,89.682,89.682
			c49.45,0,89.681-40.232,89.681-89.682V0L167.228,82.855z M107.597,481.95c-32.88,0-59.631-26.75-59.631-59.632
			c0-32.881,26.75-59.632,59.631-59.632c32.881,0,59.632,26.75,59.632,59.632C167.228,455.2,140.478,481.95,107.597,481.95z
			 M197.278,172.476v-66.238l266.757-67.62v66.237L197.278,172.476z M404.404,409.602c-32.881,0-59.632-26.751-59.632-59.632
			c0-32.88,26.75-59.631,59.632-59.631c32.88,0,59.631,26.75,59.631,59.631C464.035,382.852,437.285,409.602,404.404,409.602z"/>
	</g>
</g>
<g>
</g>
<g>
</g>
<g>
</g>
<g>
</g>
<g>
</g>
<g>
</g>
<g>
</g>
<g>
</g>
<g>
</g>
<g>
</g>
<g>
</g>
<g>
</g>
<g>
</g>
<g>
</g>
<g>
</g>
</svg>
